<mxfile host="app.diagrams.net" agent="Mozilla/5.0 (Windows NT 10.0; Win64; x64) AppleWebKit/537.36 (KHTML, like Gecko) Chrome/138.0.0.0 Safari/537.36 Edg/138.0.0.0" version="27.1.6">
  <diagram name="Page-1" id="A15lnB7hSz09jgYucJyl">
    <mxGraphModel dx="1656" dy="1851" grid="1" gridSize="10" guides="1" tooltips="1" connect="1" arrows="1" fold="1" page="1" pageScale="1" pageWidth="850" pageHeight="1100" math="0" shadow="0">
      <root>
        <mxCell id="0" />
        <mxCell id="1" parent="0" />
        <mxCell id="F_spIJ7pmNGVJQOd3bTl-47" value="Region" style="points=[[0,0],[0.25,0],[0.5,0],[0.75,0],[1,0],[1,0.25],[1,0.5],[1,0.75],[1,1],[0.75,1],[0.5,1],[0.25,1],[0,1],[0,0.75],[0,0.5],[0,0.25]];outlineConnect=0;gradientColor=none;html=1;whiteSpace=wrap;fontSize=12;fontStyle=0;container=1;pointerEvents=0;collapsible=0;recursiveResize=0;shape=mxgraph.aws4.group;grIcon=mxgraph.aws4.group_region;strokeColor=#00A4A6;fillColor=none;verticalAlign=top;align=left;spacingLeft=30;fontColor=#147EBA;dashed=1;" vertex="1" parent="1">
          <mxGeometry x="20" y="-670" width="1450" height="1270" as="geometry" />
        </mxCell>
        <mxCell id="F_spIJ7pmNGVJQOd3bTl-48" value="VPC" style="sketch=0;outlineConnect=0;gradientColor=none;html=1;whiteSpace=wrap;fontSize=12;fontStyle=0;shape=mxgraph.aws4.group;grIcon=mxgraph.aws4.group_vpc;strokeColor=#879196;fillColor=none;verticalAlign=top;align=left;spacingLeft=30;fontColor=#879196;dashed=0;" vertex="1" parent="F_spIJ7pmNGVJQOd3bTl-47">
          <mxGeometry x="20" y="30" width="1300" height="1160" as="geometry" />
        </mxCell>
        <mxCell id="F_spIJ7pmNGVJQOd3bTl-52" value="Availability zone" style="sketch=0;outlineConnect=0;gradientColor=none;html=1;whiteSpace=wrap;fontSize=12;fontStyle=0;shape=mxgraph.aws4.group;grIcon=mxgraph.aws4.group_availability_zone;strokeColor=#545B64;fillColor=none;verticalAlign=top;align=left;spacingLeft=30;fontColor=#545B64;dashed=1;" vertex="1" parent="F_spIJ7pmNGVJQOd3bTl-47">
          <mxGeometry x="70" y="120" width="320" height="1030" as="geometry" />
        </mxCell>
        <mxCell id="F_spIJ7pmNGVJQOd3bTl-54" value="Availability zone" style="sketch=0;outlineConnect=0;gradientColor=none;html=1;whiteSpace=wrap;fontSize=12;fontStyle=0;shape=mxgraph.aws4.group;grIcon=mxgraph.aws4.group_availability_zone;strokeColor=#545B64;fillColor=none;verticalAlign=top;align=left;spacingLeft=30;fontColor=#545B64;dashed=1;" vertex="1" parent="F_spIJ7pmNGVJQOd3bTl-47">
          <mxGeometry x="856.75" y="110" width="330" height="1040" as="geometry" />
        </mxCell>
        <mxCell id="F_spIJ7pmNGVJQOd3bTl-56" value="Public subnet" style="points=[[0,0],[0.25,0],[0.5,0],[0.75,0],[1,0],[1,0.25],[1,0.5],[1,0.75],[1,1],[0.75,1],[0.5,1],[0.25,1],[0,1],[0,0.75],[0,0.5],[0,0.25]];outlineConnect=0;gradientColor=none;html=1;whiteSpace=wrap;fontSize=12;fontStyle=0;container=1;pointerEvents=0;collapsible=0;recursiveResize=0;shape=mxgraph.aws4.group;grIcon=mxgraph.aws4.group_security_group;grStroke=0;strokeColor=#7AA116;fillColor=#F2F6E8;verticalAlign=top;align=left;spacingLeft=30;fontColor=#248814;dashed=0;" vertex="1" parent="F_spIJ7pmNGVJQOd3bTl-47">
          <mxGeometry x="110" y="160" width="240" height="240" as="geometry" />
        </mxCell>
        <mxCell id="F_spIJ7pmNGVJQOd3bTl-66" value="" style="outlineConnect=0;dashed=0;verticalLabelPosition=bottom;verticalAlign=top;align=center;html=1;shape=mxgraph.aws3.vpc_nat_gateway;fillColor=#F58534;gradientColor=none;" vertex="1" parent="F_spIJ7pmNGVJQOd3bTl-56">
          <mxGeometry x="96" y="130" width="69" height="72" as="geometry" />
        </mxCell>
        <mxCell id="F_spIJ7pmNGVJQOd3bTl-67" value="" style="points=[];aspect=fixed;html=1;align=center;shadow=0;dashed=0;fillColor=#FF6A00;strokeColor=none;shape=mxgraph.alibaba_cloud.route_table;" vertex="1" parent="F_spIJ7pmNGVJQOd3bTl-56">
          <mxGeometry x="170" y="20" width="37.5" height="47.400000000000006" as="geometry" />
        </mxCell>
        <mxCell id="F_spIJ7pmNGVJQOd3bTl-126" value="PUBLIC_RT" style="text;html=1;align=center;verticalAlign=middle;whiteSpace=wrap;rounded=0;" vertex="1" parent="F_spIJ7pmNGVJQOd3bTl-56">
          <mxGeometry x="170" y="80" width="60" height="30" as="geometry" />
        </mxCell>
        <mxCell id="F_spIJ7pmNGVJQOd3bTl-58" value="Public subnet" style="points=[[0,0],[0.25,0],[0.5,0],[0.75,0],[1,0],[1,0.25],[1,0.5],[1,0.75],[1,1],[0.75,1],[0.5,1],[0.25,1],[0,1],[0,0.75],[0,0.5],[0,0.25]];outlineConnect=0;gradientColor=none;html=1;whiteSpace=wrap;fontSize=12;fontStyle=0;container=1;pointerEvents=0;collapsible=0;recursiveResize=0;shape=mxgraph.aws4.group;grIcon=mxgraph.aws4.group_security_group;grStroke=0;strokeColor=#7AA116;fillColor=#F2F6E8;verticalAlign=top;align=left;spacingLeft=30;fontColor=#248814;dashed=0;" vertex="1" parent="F_spIJ7pmNGVJQOd3bTl-47">
          <mxGeometry x="890" y="150" width="240" height="240" as="geometry" />
        </mxCell>
        <mxCell id="F_spIJ7pmNGVJQOd3bTl-127" value="PUBLIC_RT" style="text;html=1;align=center;verticalAlign=middle;whiteSpace=wrap;rounded=0;" vertex="1" parent="F_spIJ7pmNGVJQOd3bTl-58">
          <mxGeometry x="158.75" y="80" width="60" height="30" as="geometry" />
        </mxCell>
        <mxCell id="F_spIJ7pmNGVJQOd3bTl-60" value="Private subnet" style="points=[[0,0],[0.25,0],[0.5,0],[0.75,0],[1,0],[1,0.25],[1,0.5],[1,0.75],[1,1],[0.75,1],[0.5,1],[0.25,1],[0,1],[0,0.75],[0,0.5],[0,0.25]];outlineConnect=0;gradientColor=none;html=1;whiteSpace=wrap;fontSize=12;fontStyle=0;container=1;pointerEvents=0;collapsible=0;recursiveResize=0;shape=mxgraph.aws4.group;grIcon=mxgraph.aws4.group_security_group;grStroke=0;strokeColor=#00A4A6;fillColor=#E6F6F7;verticalAlign=top;align=left;spacingLeft=30;fontColor=#147EBA;dashed=0;" vertex="1" parent="F_spIJ7pmNGVJQOd3bTl-47">
          <mxGeometry x="890" y="470" width="250" height="510" as="geometry" />
        </mxCell>
        <mxCell id="F_spIJ7pmNGVJQOd3bTl-121" value="Node Group" style="text;html=1;align=center;verticalAlign=middle;whiteSpace=wrap;rounded=0;" vertex="1" parent="F_spIJ7pmNGVJQOd3bTl-60">
          <mxGeometry x="70" y="199" width="60" height="30" as="geometry" />
        </mxCell>
        <mxCell id="F_spIJ7pmNGVJQOd3bTl-61" value="Private subnet" style="points=[[0,0],[0.25,0],[0.5,0],[0.75,0],[1,0],[1,0.25],[1,0.5],[1,0.75],[1,1],[0.75,1],[0.5,1],[0.25,1],[0,1],[0,0.75],[0,0.5],[0,0.25]];outlineConnect=0;gradientColor=none;html=1;whiteSpace=wrap;fontSize=12;fontStyle=0;container=1;pointerEvents=0;collapsible=0;recursiveResize=0;shape=mxgraph.aws4.group;grIcon=mxgraph.aws4.group_security_group;grStroke=0;strokeColor=#00A4A6;fillColor=#E6F6F7;verticalAlign=top;align=left;spacingLeft=30;fontColor=#147EBA;dashed=0;" vertex="1" parent="F_spIJ7pmNGVJQOd3bTl-47">
          <mxGeometry x="100" y="510" width="260" height="480" as="geometry" />
        </mxCell>
        <mxCell id="F_spIJ7pmNGVJQOd3bTl-102" value="" style="outlineConnect=0;dashed=0;verticalLabelPosition=bottom;verticalAlign=top;align=center;html=1;shape=mxgraph.aws3.rds_db_instance_read_replica;fillColor=#2E73B8;gradientColor=none;" vertex="1" parent="F_spIJ7pmNGVJQOd3bTl-61">
          <mxGeometry x="101" y="330" width="49.5" height="66" as="geometry" />
        </mxCell>
        <mxCell id="F_spIJ7pmNGVJQOd3bTl-120" value="Fargate profile" style="text;html=1;align=center;verticalAlign=middle;whiteSpace=wrap;rounded=0;" vertex="1" parent="F_spIJ7pmNGVJQOd3bTl-61">
          <mxGeometry x="50" y="210" width="60" height="30" as="geometry" />
        </mxCell>
        <mxCell id="F_spIJ7pmNGVJQOd3bTl-123" value="READ REPLICA" style="text;html=1;align=center;verticalAlign=middle;whiteSpace=wrap;rounded=0;" vertex="1" parent="F_spIJ7pmNGVJQOd3bTl-61">
          <mxGeometry x="100" y="420" width="60" height="30" as="geometry" />
        </mxCell>
        <mxCell id="F_spIJ7pmNGVJQOd3bTl-124" value="PRIVATE_RT" style="text;html=1;align=center;verticalAlign=middle;whiteSpace=wrap;rounded=0;" vertex="1" parent="F_spIJ7pmNGVJQOd3bTl-61">
          <mxGeometry x="175" y="116" width="60" height="30" as="geometry" />
        </mxCell>
        <mxCell id="F_spIJ7pmNGVJQOd3bTl-63" value="" style="outlineConnect=0;dashed=0;verticalLabelPosition=bottom;verticalAlign=top;align=center;html=1;shape=mxgraph.aws3.ec2;fillColor=#F58534;gradientColor=none;" vertex="1" parent="F_spIJ7pmNGVJQOd3bTl-47">
          <mxGeometry x="983.5" y="562.4" width="76.5" height="93" as="geometry" />
        </mxCell>
        <mxCell id="F_spIJ7pmNGVJQOd3bTl-71" value="" style="points=[];aspect=fixed;html=1;align=center;shadow=0;dashed=0;fillColor=#FF6A00;strokeColor=none;shape=mxgraph.alibaba_cloud.route_table;" vertex="1" parent="F_spIJ7pmNGVJQOd3bTl-47">
          <mxGeometry x="1060" y="180" width="37.5" height="47.400000000000006" as="geometry" />
        </mxCell>
        <mxCell id="F_spIJ7pmNGVJQOd3bTl-72" value="" style="points=[];aspect=fixed;html=1;align=center;shadow=0;dashed=0;fillColor=#FF6A00;strokeColor=none;shape=mxgraph.alibaba_cloud.route_table;" vertex="1" parent="F_spIJ7pmNGVJQOd3bTl-47">
          <mxGeometry x="290" y="562.4" width="37.5" height="47.400000000000006" as="geometry" />
        </mxCell>
        <mxCell id="F_spIJ7pmNGVJQOd3bTl-64" value="" style="sketch=0;points=[[0,0,0],[0.25,0,0],[0.5,0,0],[0.75,0,0],[1,0,0],[0,1,0],[0.25,1,0],[0.5,1,0],[0.75,1,0],[1,1,0],[0,0.25,0],[0,0.5,0],[0,0.75,0],[1,0.25,0],[1,0.5,0],[1,0.75,0]];outlineConnect=0;fontColor=#232F3E;fillColor=#ED7100;strokeColor=#ffffff;dashed=0;verticalLabelPosition=bottom;verticalAlign=top;align=center;html=1;fontSize=12;fontStyle=0;aspect=fixed;shape=mxgraph.aws4.resourceIcon;resIcon=mxgraph.aws4.fargate;" vertex="1" parent="F_spIJ7pmNGVJQOd3bTl-47">
          <mxGeometry x="150" y="620" width="78" height="78" as="geometry" />
        </mxCell>
        <mxCell id="F_spIJ7pmNGVJQOd3bTl-76" style="edgeStyle=orthogonalEdgeStyle;rounded=0;orthogonalLoop=1;jettySize=auto;html=1;entryX=0.501;entryY=0.252;entryDx=0;entryDy=0;entryPerimeter=0;" edge="1" parent="F_spIJ7pmNGVJQOd3bTl-47" source="F_spIJ7pmNGVJQOd3bTl-66" target="F_spIJ7pmNGVJQOd3bTl-72">
          <mxGeometry relative="1" as="geometry" />
        </mxCell>
        <mxCell id="F_spIJ7pmNGVJQOd3bTl-78" style="edgeStyle=orthogonalEdgeStyle;rounded=0;orthogonalLoop=1;jettySize=auto;html=1;entryX=0.6;entryY=0.283;entryDx=0;entryDy=0;entryPerimeter=0;" edge="1" parent="F_spIJ7pmNGVJQOd3bTl-47" source="F_spIJ7pmNGVJQOd3bTl-66" target="F_spIJ7pmNGVJQOd3bTl-75">
          <mxGeometry relative="1" as="geometry">
            <Array as="points">
              <mxPoint x="241" y="370" />
              <mxPoint x="593" y="370" />
            </Array>
          </mxGeometry>
        </mxCell>
        <mxCell id="F_spIJ7pmNGVJQOd3bTl-83" value="" style="outlineConnect=0;dashed=0;verticalLabelPosition=bottom;verticalAlign=top;align=center;html=1;shape=mxgraph.aws3.internet_gateway;fillColor=#F58534;gradientColor=none;" vertex="1" parent="F_spIJ7pmNGVJQOd3bTl-47">
          <mxGeometry x="580" y="10" width="69" height="60" as="geometry" />
        </mxCell>
        <mxCell id="F_spIJ7pmNGVJQOd3bTl-75" value="" style="points=[];aspect=fixed;html=1;align=center;shadow=0;dashed=0;fillColor=#FF6A00;strokeColor=none;shape=mxgraph.alibaba_cloud.route_table;" vertex="1" parent="F_spIJ7pmNGVJQOd3bTl-47">
          <mxGeometry x="900" y="540" width="37.5" height="47.400000000000006" as="geometry" />
        </mxCell>
        <mxCell id="F_spIJ7pmNGVJQOd3bTl-98" value="" style="points=[];aspect=fixed;html=1;align=center;shadow=0;dashed=0;fillColor=#FF6A00;strokeColor=none;shape=mxgraph.alibaba_cloud.alb_application_load_balancer_02;" vertex="1" parent="F_spIJ7pmNGVJQOd3bTl-47">
          <mxGeometry x="524.5" y="190" width="60" height="60" as="geometry" />
        </mxCell>
        <mxCell id="F_spIJ7pmNGVJQOd3bTl-100" style="edgeStyle=orthogonalEdgeStyle;rounded=0;orthogonalLoop=1;jettySize=auto;html=1;entryX=0.875;entryY=0.097;entryDx=0;entryDy=0;entryPerimeter=0;" edge="1" parent="F_spIJ7pmNGVJQOd3bTl-47" source="F_spIJ7pmNGVJQOd3bTl-98" target="F_spIJ7pmNGVJQOd3bTl-52">
          <mxGeometry relative="1" as="geometry" />
        </mxCell>
        <mxCell id="F_spIJ7pmNGVJQOd3bTl-103" style="edgeStyle=orthogonalEdgeStyle;rounded=0;orthogonalLoop=1;jettySize=auto;html=1;" edge="1" parent="F_spIJ7pmNGVJQOd3bTl-47" source="F_spIJ7pmNGVJQOd3bTl-65" target="F_spIJ7pmNGVJQOd3bTl-102">
          <mxGeometry relative="1" as="geometry" />
        </mxCell>
        <mxCell id="F_spIJ7pmNGVJQOd3bTl-129" style="edgeStyle=orthogonalEdgeStyle;rounded=0;orthogonalLoop=1;jettySize=auto;html=1;" edge="1" parent="F_spIJ7pmNGVJQOd3bTl-47" source="F_spIJ7pmNGVJQOd3bTl-107" target="F_spIJ7pmNGVJQOd3bTl-63">
          <mxGeometry relative="1" as="geometry">
            <Array as="points">
              <mxPoint x="1230" y="1111" />
              <mxPoint x="1230" y="609" />
            </Array>
          </mxGeometry>
        </mxCell>
        <mxCell id="F_spIJ7pmNGVJQOd3bTl-107" value="" style="sketch=0;points=[[0,0,0],[0.25,0,0],[0.5,0,0],[0.75,0,0],[1,0,0],[0,1,0],[0.25,1,0],[0.5,1,0],[0.75,1,0],[1,1,0],[0,0.25,0],[0,0.5,0],[0,0.75,0],[1,0.25,0],[1,0.5,0],[1,0.75,0]];outlineConnect=0;fontColor=#232F3E;fillColor=#DD344C;strokeColor=#ffffff;dashed=0;verticalLabelPosition=bottom;verticalAlign=top;align=center;html=1;fontSize=12;fontStyle=0;aspect=fixed;shape=mxgraph.aws4.resourceIcon;resIcon=mxgraph.aws4.secrets_manager;" vertex="1" parent="F_spIJ7pmNGVJQOd3bTl-47">
          <mxGeometry x="710" y="1072" width="78" height="78" as="geometry" />
        </mxCell>
        <mxCell id="F_spIJ7pmNGVJQOd3bTl-108" style="edgeStyle=orthogonalEdgeStyle;rounded=0;orthogonalLoop=1;jettySize=auto;html=1;entryX=1;entryY=0.5;entryDx=0;entryDy=0;entryPerimeter=0;" edge="1" parent="F_spIJ7pmNGVJQOd3bTl-47" source="F_spIJ7pmNGVJQOd3bTl-65" target="F_spIJ7pmNGVJQOd3bTl-107">
          <mxGeometry relative="1" as="geometry" />
        </mxCell>
        <mxCell id="F_spIJ7pmNGVJQOd3bTl-111" value="IGW" style="text;html=1;align=center;verticalAlign=middle;whiteSpace=wrap;rounded=0;" vertex="1" parent="F_spIJ7pmNGVJQOd3bTl-47">
          <mxGeometry x="650" y="40" width="60" height="30" as="geometry" />
        </mxCell>
        <mxCell id="F_spIJ7pmNGVJQOd3bTl-112" value="INGRESS CPNTROLLER ALB" style="text;html=1;align=center;verticalAlign=middle;whiteSpace=wrap;rounded=0;" vertex="1" parent="F_spIJ7pmNGVJQOd3bTl-47">
          <mxGeometry x="530" y="250" width="70" height="40" as="geometry" />
        </mxCell>
        <mxCell id="F_spIJ7pmNGVJQOd3bTl-113" value="/" style="text;html=1;align=center;verticalAlign=middle;whiteSpace=wrap;rounded=0;" vertex="1" parent="F_spIJ7pmNGVJQOd3bTl-47">
          <mxGeometry x="429" y="188.7" width="60" height="30" as="geometry" />
        </mxCell>
        <mxCell id="F_spIJ7pmNGVJQOd3bTl-114" value="/api" style="text;html=1;align=center;verticalAlign=middle;whiteSpace=wrap;rounded=0;" vertex="1" parent="F_spIJ7pmNGVJQOd3bTl-47">
          <mxGeometry x="584.5" y="188.7" width="60" height="30" as="geometry" />
        </mxCell>
        <mxCell id="F_spIJ7pmNGVJQOd3bTl-115" value="" style="sketch=0;points=[[0,0,0],[0.25,0,0],[0.5,0,0],[0.75,0,0],[1,0,0],[0,1,0],[0.25,1,0],[0.5,1,0],[0.75,1,0],[1,1,0],[0,0.25,0],[0,0.5,0],[0,0.75,0],[1,0.25,0],[1,0.5,0],[1,0.75,0]];outlineConnect=0;fontColor=#232F3E;fillColor=#ED7100;strokeColor=#ffffff;dashed=0;verticalLabelPosition=bottom;verticalAlign=top;align=center;html=1;fontSize=12;fontStyle=0;aspect=fixed;shape=mxgraph.aws4.resourceIcon;resIcon=mxgraph.aws4.eks_cloud;" vertex="1" parent="F_spIJ7pmNGVJQOd3bTl-47">
          <mxGeometry x="420" y="40" width="78" height="78" as="geometry" />
        </mxCell>
        <mxCell id="F_spIJ7pmNGVJQOd3bTl-116" value="EKS CLUSTER" style="text;html=1;align=center;verticalAlign=middle;whiteSpace=wrap;rounded=0;" vertex="1" parent="F_spIJ7pmNGVJQOd3bTl-47">
          <mxGeometry x="420" y="135" width="60" height="30" as="geometry" />
        </mxCell>
        <mxCell id="F_spIJ7pmNGVJQOd3bTl-117" style="edgeStyle=orthogonalEdgeStyle;rounded=0;orthogonalLoop=1;jettySize=auto;html=1;entryX=0.101;entryY=0.106;entryDx=0;entryDy=0;entryPerimeter=0;" edge="1" parent="F_spIJ7pmNGVJQOd3bTl-47" source="F_spIJ7pmNGVJQOd3bTl-98" target="F_spIJ7pmNGVJQOd3bTl-54">
          <mxGeometry relative="1" as="geometry" />
        </mxCell>
        <mxCell id="F_spIJ7pmNGVJQOd3bTl-118" value="retrive secrets" style="text;html=1;align=center;verticalAlign=middle;whiteSpace=wrap;rounded=0;" vertex="1" parent="F_spIJ7pmNGVJQOd3bTl-47">
          <mxGeometry x="1240" y="930" width="60" height="30" as="geometry" />
        </mxCell>
        <mxCell id="F_spIJ7pmNGVJQOd3bTl-119" value="Storing DB Credentials" style="text;html=1;align=center;verticalAlign=middle;whiteSpace=wrap;rounded=0;" vertex="1" parent="F_spIJ7pmNGVJQOd3bTl-47">
          <mxGeometry x="788" y="1072" width="60" height="30" as="geometry" />
        </mxCell>
        <mxCell id="F_spIJ7pmNGVJQOd3bTl-125" value="PRIVATE_RT" style="text;html=1;align=center;verticalAlign=middle;whiteSpace=wrap;rounded=0;" vertex="1" parent="F_spIJ7pmNGVJQOd3bTl-47">
          <mxGeometry x="923.5" y="510" width="60" height="30" as="geometry" />
        </mxCell>
        <mxCell id="F_spIJ7pmNGVJQOd3bTl-65" value="" style="outlineConnect=0;dashed=0;verticalLabelPosition=bottom;verticalAlign=top;align=center;html=1;shape=mxgraph.aws3.mysql_db_instance;fillColor=#2E73B8;gradientColor=none;" vertex="1" parent="F_spIJ7pmNGVJQOd3bTl-47">
          <mxGeometry x="1010" y="840" width="60" height="64.5" as="geometry" />
        </mxCell>
        <mxCell id="F_spIJ7pmNGVJQOd3bTl-122" value="MYSQL DB&amp;nbsp;" style="text;html=1;align=center;verticalAlign=middle;whiteSpace=wrap;rounded=0;" vertex="1" parent="F_spIJ7pmNGVJQOd3bTl-47">
          <mxGeometry x="1010" y="920" width="60" height="30" as="geometry" />
        </mxCell>
        <mxCell id="F_spIJ7pmNGVJQOd3bTl-132" value="US-EAST-1" style="text;html=1;align=center;verticalAlign=middle;whiteSpace=wrap;rounded=0;" vertex="1" parent="F_spIJ7pmNGVJQOd3bTl-47">
          <mxGeometry x="100" width="80" height="30" as="geometry" />
        </mxCell>
        <mxCell id="F_spIJ7pmNGVJQOd3bTl-133" value="10.0.0.0/16" style="text;html=1;align=center;verticalAlign=middle;whiteSpace=wrap;rounded=0;" vertex="1" parent="F_spIJ7pmNGVJQOd3bTl-47">
          <mxGeometry x="70" y="50" width="80" height="30" as="geometry" />
        </mxCell>
        <mxCell id="F_spIJ7pmNGVJQOd3bTl-134" value="10.0.1.0/24" style="text;html=1;align=center;verticalAlign=middle;whiteSpace=wrap;rounded=0;" vertex="1" parent="F_spIJ7pmNGVJQOd3bTl-47">
          <mxGeometry x="228" y="135" width="80" height="30" as="geometry" />
        </mxCell>
        <mxCell id="F_spIJ7pmNGVJQOd3bTl-135" value="AZ-1" style="text;html=1;align=center;verticalAlign=middle;whiteSpace=wrap;rounded=0;" vertex="1" parent="F_spIJ7pmNGVJQOd3bTl-47">
          <mxGeometry x="196" y="89" width="60" height="30" as="geometry" />
        </mxCell>
        <mxCell id="F_spIJ7pmNGVJQOd3bTl-136" value="AZ-2" style="text;html=1;align=center;verticalAlign=middle;whiteSpace=wrap;rounded=0;" vertex="1" parent="F_spIJ7pmNGVJQOd3bTl-47">
          <mxGeometry x="950" y="80" width="60" height="30" as="geometry" />
        </mxCell>
        <mxCell id="F_spIJ7pmNGVJQOd3bTl-137" value="10.0.2.0/24" style="text;html=1;align=center;verticalAlign=middle;whiteSpace=wrap;rounded=0;" vertex="1" parent="F_spIJ7pmNGVJQOd3bTl-47">
          <mxGeometry x="1010" y="118" width="80" height="30" as="geometry" />
        </mxCell>
        <mxCell id="F_spIJ7pmNGVJQOd3bTl-138" value="10.0.10.0/24" style="text;html=1;align=center;verticalAlign=middle;whiteSpace=wrap;rounded=0;" vertex="1" parent="F_spIJ7pmNGVJQOd3bTl-47">
          <mxGeometry x="170" y="480" width="80" height="30" as="geometry" />
        </mxCell>
        <mxCell id="F_spIJ7pmNGVJQOd3bTl-139" value="10.0.20.0/24" style="text;html=1;align=center;verticalAlign=middle;whiteSpace=wrap;rounded=0;" vertex="1" parent="F_spIJ7pmNGVJQOd3bTl-47">
          <mxGeometry x="970" y="440" width="80" height="30" as="geometry" />
        </mxCell>
        <mxCell id="F_spIJ7pmNGVJQOd3bTl-84" value="" style="shape=actor;whiteSpace=wrap;html=1;" vertex="1" parent="1">
          <mxGeometry x="230" y="-830" width="40" height="60" as="geometry" />
        </mxCell>
        <mxCell id="F_spIJ7pmNGVJQOd3bTl-99" style="edgeStyle=orthogonalEdgeStyle;rounded=0;orthogonalLoop=1;jettySize=auto;html=1;entryX=0.219;entryY=0.171;entryDx=0;entryDy=0;entryPerimeter=0;" edge="1" parent="1" source="F_spIJ7pmNGVJQOd3bTl-84" target="F_spIJ7pmNGVJQOd3bTl-98">
          <mxGeometry relative="1" as="geometry" />
        </mxCell>
        <mxCell id="F_spIJ7pmNGVJQOd3bTl-110" value="USER" style="text;html=1;align=center;verticalAlign=middle;whiteSpace=wrap;rounded=0;" vertex="1" parent="1">
          <mxGeometry x="220" y="-760" width="60" height="30" as="geometry" />
        </mxCell>
      </root>
    </mxGraphModel>
  </diagram>
</mxfile>
